<?xml version="1.0" standalone="no"?>
<!DOCTYPE svg PUBLIC "-//W3C//DTD SVG 20010904//EN"
 "http://www.w3.org/TR/2001/REC-SVG-20010904/DTD/svg10.dtd">
<svg version="1.0" xmlns="http://www.w3.org/2000/svg"
 width="50.000000pt" height="49.000000pt" viewBox="0 0 50.000000 49.000000"
 preserveAspectRatio="xMidYMid meet">
<metadata>
Created by potrace 1.10, written by Peter Selinger 2001-2011
</metadata>
<g transform="translate(0.000000,49.000000) scale(0.100000,-0.100000)"
fill="#000000" stroke="none">
<path d="M292 460 c-24 -10 -57 -74 -47 -90 12 -19 31 -10 42 20 6 16 19 33
27 36 21 8 106 -24 113 -42 3 -8 -12 -59 -32 -114 -42 -112 -54 -122 -117 -96
-47 20 -59 41 -46 79 8 22 8 31 -3 37 -19 12 -27 4 -35 -35 -11 -62 1 -84 62
-111 65 -29 85 -30 114 -6 21 17 100 201 100 233 0 29 -39 67 -87 83 -53 18
-59 18 -91 6z"/>
<path d="M132 335 c-28 -35 -84 -197 -80 -231 5 -49 100 -96 163 -80 15 4 32
21 45 46 20 39 20 39 0 50 -17 9 -20 7 -26 -14 -3 -14 -14 -32 -24 -41 -16
-14 -21 -14 -66 2 -37 14 -50 24 -52 42 -4 29 59 202 76 208 20 8 79 -6 103
-26 21 -17 22 -22 12 -54 -9 -30 -8 -37 5 -42 18 -7 29 8 38 51 8 44 -10 72
-63 95 -63 27 -107 25 -131 -6z"/>
</g>
</svg>
